<?xml version="1.0" encoding="UTF-8"?>
<!DOCTYPE svg PUBLIC "-//W3C//DTD SVG 1.1//EN" "http://www.w3.org/Graphics/SVG/1.1/DTD/svg11.dtd">
<svg xmlns="http://www.w3.org/2000/svg" version="1.1" width="2290px" height="1424px" style="shape-rendering:geometricPrecision; text-rendering:geometricPrecision; image-rendering:optimizeQuality; fill-rule:evenodd; clip-rule:evenodd" xmlns:xlink="http://www.w3.org/1999/xlink">
<g><path style="opacity:0.984" fill="#000000" d="M 161.5,145.5 C 235.167,145.5 308.833,145.5 382.5,145.5C 382.5,219.167 382.5,292.833 382.5,366.5C 308.833,366.5 235.167,366.5 161.5,366.5C 161.5,292.833 161.5,219.167 161.5,145.5 Z M 193.5,177.5 C 245.5,177.5 297.5,177.5 349.5,177.5C 349.5,229.833 349.5,282.167 349.5,334.5C 297.5,334.5 245.5,334.5 193.5,334.5C 193.5,282.167 193.5,229.833 193.5,177.5 Z"/></g>
<g><path style="opacity:0.973" fill="#000000" d="M 161.5,459.5 C 235.167,459.5 308.833,459.5 382.5,459.5C 382.5,732.5 382.5,1005.5 382.5,1278.5C 308.833,1278.5 235.167,1278.5 161.5,1278.5C 161.5,1005.5 161.5,732.5 161.5,459.5 Z M 193.5,492.5 C 239.168,492.333 284.835,492.5 330.5,493C 285,538.5 239.5,584 194,629.5C 193.5,583.835 193.333,538.168 193.5,492.5 Z M 348.5,521.5 C 349.666,622.333 349.833,723.333 349,824.5C 298.5,774 248,723.5 197.5,673C 248.035,622.632 298.368,572.132 348.5,521.5 Z M 193.5,715.5 C 239.299,760.799 284.965,806.299 330.5,852C 284.835,852.5 239.168,852.667 193.5,852.5C 193.5,806.833 193.5,761.167 193.5,715.5 Z M 193.5,885.5 C 239.168,885.333 284.835,885.5 330.5,886C 285,931.5 239.5,977 194,1022.5C 193.5,976.835 193.333,931.168 193.5,885.5 Z M 348.5,913.5 C 349.665,962.998 349.832,1012.66 349,1062.5C 297.333,1114.17 245.667,1165.83 194,1217.5C 193.333,1167.83 193.333,1118.17 194,1068.5C 245.701,1016.97 297.201,965.299 348.5,913.5 Z M 348.5,1109.5 C 349.499,1154.66 349.832,1200 349.5,1245.5C 304.165,1245.67 258.832,1245.5 213.5,1245C 258.701,1199.97 303.701,1154.8 348.5,1109.5 Z"/></g>
<g><path style="opacity:0.975" fill="#000000" d="M 711.5,591.5 C 724.833,591.5 738.167,591.5 751.5,591.5C 751.5,604.833 751.5,618.167 751.5,631.5C 738.167,631.5 724.833,631.5 711.5,631.5C 711.5,618.167 711.5,604.833 711.5,591.5 Z"/></g>
<g><path style="opacity:0.989" fill="#000000" d="M 711.5,669.5 C 724.833,669.5 738.167,669.5 751.5,669.5C 751.5,735.5 751.5,801.5 751.5,867.5C 738.167,867.5 724.833,867.5 711.5,867.5C 711.5,801.5 711.5,735.5 711.5,669.5 Z"/></g>
<g><path style="opacity:0.977" fill="#000000" d="M 907.5,669.5 C 995.501,669.333 1083.5,669.5 1171.5,670C 1184.68,683.014 1197.68,696.181 1210.5,709.5C 1109.5,710.333 1008.5,710.833 907.5,711C 900.6,713.899 896.766,719.066 896,726.5C 895.333,754.833 895.333,783.167 896,811.5C 897.412,819.911 902.245,825.077 910.5,827C 1010.5,827.333 1110.5,827.667 1210.5,828C 1198.2,841.304 1185.53,854.304 1172.5,867C 1083.17,867.667 993.833,867.667 904.5,867C 879.766,862.268 863.933,847.768 857,823.5C 855.375,788.867 855.041,754.2 856,719.5C 861.588,690.743 878.755,674.076 907.5,669.5 Z"/></g>
<g><path style="opacity:0.976" fill="#000000" d="M 1487.5,669.5 C 1501.88,668.795 1514.88,672.628 1526.5,681C 1574,725.167 1621.5,769.333 1669,813.5C 1669.83,831.842 1669.67,850.176 1668.5,868.5C 1645.35,847.183 1622.35,825.683 1599.5,804C 1537.83,803.667 1476.17,803.333 1414.5,803C 1428.5,790 1442.5,777 1456.5,764C 1489.5,763.667 1522.5,763.333 1555.5,763C 1537.17,746 1518.83,729 1500.5,712C 1494.26,708.465 1488.26,708.799 1482.5,713C 1427.28,765.384 1371.62,817.217 1315.5,868.5C 1314.33,850.176 1314.17,831.842 1315,813.5C 1362.5,770 1410,726.5 1457.5,683C 1466.39,675.876 1476.39,671.376 1487.5,669.5 Z"/></g>
<g><path style="opacity:0.969" fill="#000000" d="M 1812.5,669.5 C 1902.86,669.018 1993.19,669.518 2083.5,671C 2112.79,679.638 2127.79,699.304 2128.5,730C 2127.81,759.742 2113.48,779.409 2085.5,789C 2100.09,815.507 2114.42,842.174 2128.5,869C 2113.17,869.667 2097.83,869.667 2082.5,869C 2068.37,843.247 2054.37,817.413 2040.5,791.5C 1968.84,790.333 1897.17,790.167 1825.5,791C 1819.06,793.773 1815.23,798.606 1814,805.5C 1813.5,826.497 1813.33,847.497 1813.5,868.5C 1800.17,868.5 1786.83,868.5 1773.5,868.5C 1773.33,845.164 1773.5,821.831 1774,798.5C 1779.86,770.307 1797.03,754.141 1825.5,750C 1908.83,749.667 1992.17,749.333 2075.5,749C 2081.33,747.167 2085.17,743.333 2087,737.5C 2087.67,732.167 2087.67,726.833 2087,721.5C 2084.74,716.243 2080.91,712.743 2075.5,711C 1974.83,710.833 1874.17,710.333 1773.5,709.5C 1786.52,696.146 1799.52,682.813 1812.5,669.5 Z"/></g>
</svg>
